<svg xmlns="http://www.w3.org/2000/svg" viewBox="0 0 472 472"><path fill="#fff" d="M434.8 438.8C422.7 357 393.5 276.1 329.3 237c-26.5 20.9-59 32.2-93.3 32.2s-66.8-11.3-93.3-32.2C78.6 276.1 49.4 357 37.2 438.8 34.6 456.3 48.4 472 66.1 472h339.8c17.7 0 31.5-15.7 28.9-33.2zM236 0c-65.1 0-118 52.8-118 118s52.8 118 118 118 118-52.8 118-118S301.1 0 236 0zm0 79.5c-21.2 0-38.4 17.2-38.4 38.4 0 9.7-7.9 17.6-17.6 17.6-9.7 0-17.6-7.9-17.6-17.6 0-40.6 33-73.6 73.6-73.6 9.7 0 17.6 7.9 17.6 17.6s-7.9 17.6-17.6 17.6z"/></svg>