<svg height="512" viewBox="0 0 512.02 512.02" width="512" xmlns="http://www.w3.org/2000/svg"><path fill="#fff" d="M499.37 351.95l-117.2-25.11c-5.3-1.14-10.83.49-14.66 4.33l-42.92 42.91c-80.48-40.48-146.17-106.17-186.65-186.65l42.91-42.92c3.84-3.83 5.47-9.36 4.33-14.66l-25.11-117.2A16 16 0 00144.42 0C120.17 0 97.2 5.74 76.16 17.05c-19.74 10.62-37.02 26-49.98 44.5-12.91 18.42-21.43 39.8-24.66 61.81-3.45 23.51-1.02 46.93 7.22 69.61 25.65 70.6 67.42 136.13 120.8 189.51s118.91 95.15 189.51 120.8c16.02 5.82 32.41 8.74 48.94 8.74 6.87 0 13.77-.51 20.67-1.52 22.01-3.23 43.39-11.75 61.81-24.66 18.5-12.96 33.88-30.24 44.5-49.98 11.31-21.04 17.05-44.01 17.05-68.26a16 16 0 00-12.65-15.65zM81.63 51.67c-.5.12-1 .25-1.49.38 13.917-9.781 29.921-16.195 47.066-18.772 2.483-.373 4.829 1.264 5.355 3.719l18.967 88.511a4.76 4.76 0 01-1.289 4.363l-10.502 10.503c-2.667 2.667-7.229 1.32-8.02-2.368L118.11 74.53c-3.55-16.54-20.05-26.87-36.48-22.86zm229.53 358.47c-9.38 9.38-23.78 11.44-35.48 5.18-75.91-40.6-138.38-103.07-178.98-178.98-6.26-11.7-4.2-26.1 5.18-35.48l.003-.003c2.288-2.288 6.149-1.678 7.605 1.213 43.523 86.407 114.056 156.94 200.462 200.462 2.89 1.456 3.501 5.317 1.213 7.605zm148.81 21.74c.16-.57.3-1.14.44-1.72 3.95-16.35-6.47-32.72-22.92-36.25l-63.475-13.606c-3.688-.791-5.035-5.353-2.368-8.02l10.503-10.502a4.757 4.757 0 014.363-1.288l88.511 18.967c2.455.526 4.093 2.872 3.719 5.355-2.578 17.143-8.992 33.147-18.773 47.064z"/></svg>