<svg xmlns="http://www.w3.org/2000/svg" viewBox="0 0 497.693 497.693"><path d="M232.047 194.493l-11.2 46.4c14.4 3.2 58.4 17.6 64.8-8.8 6.4-27.2-39.2-33.6-53.6-37.6z" fill="#ed6c0c"/><path d="M285.647 232.893c7.2-27.2-39.2-34.4-53.6-37.6l-11.2 45.6" fill="#e05a00"/><path d="M248.047 131.293l-10.4 42.4c12 3.2 48.8 15.2 54.4-8.8 5.6-24.8-32-30.4-44-33.6z" fill="#ed6c0c"/><path d="M292.047 164.893c6.4-24.8-32-30.4-44-33.6l-10.4 42.4" fill="#e05a00"/><path d="M295.247 5.693c-103.2-25.6-207.2 37.6-232.8 140-25.6 103.2 36.8 207.2 140 232.8s207.2-36.8 232.8-140c25.6-102.4-36.8-206.4-140-232.8zm38.4 159.2c-2.4 18.4-12.8 28-27.2 31.2 19.2 9.6 28.8 24.8 19.2 51.2-11.2 32.8-38.4 35.2-74.4 28.8l-8.8 35.2-20.8-6.4 8.8-34.4c-5.6-1.6-11.2-3.2-16.8-4l-8.8 34.4-20.8-5.6 8.8-35.2c-4.8-1.6-9.6-2.4-15.2-4l-27.2-7.2 10.4-24 15.2 4c5.6 1.6 8.8-2.4 9.6-4.8l13.6-55.2c.8 0 1.6 0 2.4.8-.8 0-1.6-.8-2.4-.8l9.6-39.2c0-4.8-1.6-10.4-9.6-12l-15.2-4 5.6-22.4 28.8 7.2c4 .8 8.8 2.4 13.6 3.2l8.8-34.4 20.8 5.6-8.8 33.6c5.6 1.6 11.2 2.4 16.8 4l8-33.6 20.8 5.6-8.8 34.4c28 8.8 48 22.4 44 48z" fill="#ffb600"/><path d="M62.447 145.693c-25.6 103.2 36.8 207.2 140 232.8s207.2-36.8 232.8-140c25.6-103.2-36.8-207.2-140-232.8m38.4 159.2c-2.4 18.4-12.8 28-27.2 31.2 19.2 9.6 28.8 24.8 19.2 51.2-11.2 32.8-38.4 35.2-74.4 28.8l-8.8 35.2-20.8-6.4 8.8-34.4c-5.6-1.6-11.2-3.2-16.8-4l-8.8 34.4-20.8-5.6 8.8-35.2c-4.8-1.6-9.6-2.4-15.2-4l-27.2-7.2 10.4-24 15.2 4c5.6 1.6 8.8-2.4 9.6-4.8l13.6-55.2c.8 0 1.6 0 2.4.8-.8 0-1.6-.8-2.4-.8l9.6-39.2c0-4.8-1.6-10.4-9.6-12l-15.2-4 5.6-22.4 28.8 7.2c4 .8 8.8 2.4 13.6 3.2l8.8-34.4 20.8 5.6-8.8 33.6c5.6 1.6 11.2 2.4 16.8 4l8-33.6 20.8 5.6-8.8 34.4c28 8.8 48 22.4 44 48z" fill="#f6921e"/><path d="M433.647 245.693l-104-104c4 6.4 6.4 14.4 4.8 24-2.4 18.4-12.8 28-27.2 31.2 19.2 9.6 28.8 24.8 19.2 51.2-11.2 32.8-38.4 35.2-74.4 28.8l-8.8 35.2-21.6-7.2 8.8-34.4c-5.6-1.6-11.2-3.2-16.8-4l-8.8 34.4-4.8-1.6 81.6 81.6c70.4-12 131.2-63.2 152-135.2z" fill="#d85107"/><path d="M104.047 427.293c4 0 7.2.8 10.4 2.4 3.2 1.6 5.6 3.2 7.2 5.6s3.2 5.6 4 8.8c.8 3.2 1.6 7.2 1.6 10.4 0 5.6-.8 11.2-3.2 16.8-2.4 5.6-4.8 9.6-8.8 13.6s-8 7.2-13.6 8.8c-4.8 2.4-10.4 3.2-16.8 3.2h-4c-1.6 0-4 0-6.4-.8-2.4 0-4.8-.8-8-1.6-2.4-.8-5.6-1.6-8-2.4l21.6-92 20-3.2-8 32.8c1.6-.8 3.2-1.6 4.8-1.6 3.2 0 5.6-.8 7.2-.8m-16 54.4c3.2 0 5.6-.8 8-2.4s4.8-3.2 6.4-5.6 3.2-4.8 4.8-8c.8-3.2 1.6-6.4 1.6-9.6 0-4-.8-7.2-2.4-9.6s-4-3.2-7.2-3.2c-.8 0-2.4 0-4.8.8-1.6.8-4 1.6-4.8 2.4l-8 34.4h4c0 .8.8.8 2.4.8zm60 13.6h-19.2l16-66.4h19.2l-16 66.4m9.6-74.4c-2.4 0-4.8-.8-7.2-2.4s-3.2-4-3.2-7.2c0-1.6 0-3.2.8-4.8.8-1.6 1.6-3.2 3.2-4 .8-.8 2.4-2.4 4-2.4 1.6-.8 3.2-.8 4.8-.8 2.4 0 4.8.8 7.2 2.4s3.2 4 3.2 7.2c0 1.6 0 3.2-.8 4.8-.8 1.6-1.6 3.2-3.2 4-.8.8-2.4 2.4-4 2.4s-3.2.8-4.8.8zm23.2-8.8l20-3.2-4.8 20h20.8l-4 15.2h-20.8l-5.6 23.2c-.8 1.6-.8 4-.8 5.6s0 3.2.8 4c.8 1.6 1.6 2.4 2.4 3.2 1.6.8 3.2.8 5.6.8 2.4 0 4 0 5.6-.8 1.6 0 4-.8 5.6-1.6l1.6 14.4c-2.4.8-5.6 1.6-8 2.4-3.2 1.6-6.4 1.6-10.4 1.6-5.6 0-10.4-.8-13.6-2.4-3.2-1.6-5.6-4-7.2-7.2-1.6-3.2-1.6-6.4-1.6-10.4s.8-8 1.6-12l12.8-52.8m35.2 56.8c0-5.6.8-11.2 3.2-16 1.6-4.8 4.8-9.6 8-13.6s8-6.4 12.8-8.8 10.4-3.2 16.8-3.2c4 0 7.2 0 10.4.8s5.6 1.6 8 3.2l-6.4 14.4c-1.6-.8-3.2-1.6-5.6-1.6-1.6-.8-4-.8-6.4-.8-6.4 0-11.2 2.4-15.2 6.4s-5.6 10.4-5.6 17.6c0 4 .8 8 3.2 10.4 1.6 2.4 5.6 4 10.4 4 2.4 0 4.8 0 7.2-.8 2.4-.8 4-.8 6.4-1.6l1.6 15.2c-2.4.8-4.8 1.6-8 2.4s-6.4.8-10.4.8c-5.6 0-9.6-.8-13.6-2.4s-6.4-3.2-8.8-6.4c-2.4-2.4-4-5.6-4.8-8.8-3.2-4-3.2-7.2-3.2-11.2m83.2 28.8c-4.8 0-8-.8-12-2.4-3.2-1.6-6.4-3.2-8-5.6-2.4-2.4-4-5.6-4.8-8.8-.8-3.2-1.6-7.2-1.6-11.2 0-4.8.8-10.4 2.4-15.2 1.6-4.8 4-9.6 7.2-13.6s7.2-7.2 12-9.6 9.6-4 16-4c4.8 0 8 .8 12 2.4 3.2 1.6 6.4 3.2 8 5.6 2.4 2.4 4 5.6 4.8 8.8.8 3.2 1.6 7.2 1.6 11.2 0 4.8-.8 10.4-2.4 15.2-1.6 4.8-4 9.6-7.2 13.6s-7.2 7.2-12 9.6-9.6 4-16 4m9.6-54.4c-2.4 0-5.6.8-7.2 2.4-2.4 1.6-4 4-5.6 6.4s-2.4 4.8-3.2 8c-.8 3.2-.8 5.6-.8 8 0 4 .8 7.2 2.4 9.6s4 3.2 7.2 3.2 5.6-.8 7.2-2.4c2.4-1.6 4-4 5.6-6.4s2.4-4.8 3.2-8c.8-3.2.8-5.6.8-8 0-4-.8-7.2-2.4-9.6s-4-3.2-7.2-3.2zm48.8 52h-19.2l16-66.4h19.2l-16 66.4m8.8-74.4c-2.4 0-4.8-.8-7.2-2.4-2.4-1.6-3.2-4-3.2-7.2 0-1.6 0-3.2.8-4.8.8-1.6 1.6-3.2 3.2-4 .8-.8 2.4-2.4 4-2.4 1.6-.8 3.2-.8 4.8-.8 2.4 0 4.8.8 7.2 2.4 2.4 1.6 3.2 4 3.2 7.2 0 1.6 0 3.2-.8 4.8-.8 1.6-1.6 3.2-3.2 4-.8.8-2.4 2.4-4 2.4s-3.2.8-4.8.8zm20.8 11.2c1.6-.8 3.2-.8 4.8-1.6 1.6-.8 4-.8 5.6-1.6 2.4-.8 4.8-.8 7.2-.8 2.4 0 5.6-.8 8.8-.8 9.6 0 16.8 3.2 20.8 8.8 4 5.6 4.8 13.6 1.6 24l-8.8 36h-18.4l8-35.2c.8-2.4.8-4 1.6-6.4v-5.6c0-1.6-.8-3.2-2.4-4s-3.2-1.6-5.6-1.6-4.8 0-7.2.8l-12 52h-19.2l15.2-64" fill="#4d4e4e"/><path d="M150.447 249.693l36 36 6.4-25.6c-4.8-1.6-9.6-2.4-15.2-4l-27.2-6.4zm144-143.2l-3.2 10.4c9.6 3.2 18.4 7.2 25.6 12l-22.4-22.4z" fill="#e26600"/><path d="M262.447 72.893l-8.8 33.6c5.6 1.6 11.2 2.4 16.8 4l5.6-24-13.6-13.6zm37.6 8.8l-8.8 34.4.8.8c24 8 42.4 20.8 42.4 42.4l96 96c1.6-5.6 3.2-11.2 4.8-16 1.6-6.4 2.4-12 3.2-18.4l-138.4-139.2zm18.4 289.6l-72.8-72.8-3.2 12-20.8-5.6 6.4-24.8-14.4-14.4-8.8 34.4-20.8-5.6v-.8l-.8.8 87.2 87.2c16.8-.8 32.8-4.8 48-10.4z" fill="#ed6c0c"/><path d="M338.447 361.693l-86.4-86.4h-.8l-8.8 35.2-20-4.8 72.8 72.8c15.2-4 29.6-9.6 43.2-16.8z" fill="#e05a00"/></svg>