<svg xmlns="http://www.w3.org/2000/svg" width="512" height="512" viewBox="0 0 512.004 512.004"><path fill="#fff" data-original="#d8b62c" d="M418.135 142.723v141.73L308.55 375.769 503.468 503.47V213.337zM93.868 213.337v-70.614L8.535 213.337V503.47l194.918-127.701-109.585-91.316z" xmlns="http://www.w3.org/2000/svg"/><path fill="#edf3f4" data-original="#f7e6a1" d="M418.135 213.337h85.333l-85.333-70.614zM93.868 142.723L8.535 213.337h85.333zm221.867-82.986l-59.733-51.2-59.734 51.2z" xmlns="http://www.w3.org/2000/svg"/><g xmlns="http://www.w3.org/2000/svg" fill="#fff"><path data-original="#d8b62c" d="M93.868 213.337H8.535V503.47h494.933V213.337h-85.333"/><path data-original="#d8b62c" d="M418.135 213.337v71.116L308.55 375.769 503.468 503.47V213.337zM93.868 284.453v-71.116H8.535V503.47l194.918-127.701z"/></g><path xmlns="http://www.w3.org/2000/svg" d="M322.886 59.737H93.868v224.708l109.585 91.315 28.348-18.577a44.171 44.171 0 0148.401 0l28.348 18.577 109.585-91.307V59.737h-95.249z" fill="#b5c4cf" data-original="#e7eced"/><path fill="#edf3f4" data-original="#f7e6a1" d="M308.55 375.769L503.468 503.47V213.337zM8.535 213.337V503.47l194.918-127.701z" xmlns="http://www.w3.org/2000/svg"/><circle xmlns="http://www.w3.org/2000/svg" cx="401.068" cy="93.87" r="85.333" fill="#fff" data-original="#25ae88"/><g xmlns="http://www.w3.org/2000/svg"><path d="M503.468 512.003H8.535a8.53 8.53 0 01-8.533-8.533V213.337a8.53 8.53 0 018.533-8.533h85.333v17.067h-76.8v273.067h477.867V221.87h-76.8v-17.067h85.333a8.53 8.53 0 018.533 8.533V503.47a8.53 8.53 0 01-8.533 8.533z" data-original="#4d007e"/><path d="M503.468 512.003c-1.63 0-3.26-.469-4.676-1.391L303.874 382.92a8.538 8.538 0 01-.785-13.696l194.918-162.441a8.528 8.528 0 019.079-1.169 8.521 8.521 0 014.915 7.723V503.47a8.531 8.531 0 01-8.533 8.533zM322.869 374.949l172.066 112.734V231.555L322.869 374.949zM8.535 512.003a8.53 8.53 0 01-8.533-8.533V213.337a8.513 8.513 0 014.915-7.723 8.528 8.528 0 019.079 1.169l194.918 162.432a8.558 8.558 0 013.055 7.049 8.535 8.535 0 01-3.84 6.647L13.211 510.612a8.508 8.508 0 01-4.676 1.391zm8.533-280.448v256.128l172.066-112.734L17.068 231.555z" data-original="#4d007e"/><path d="M503.468 512.003c-1.63 0-3.26-.469-4.676-1.391L303.874 382.92a8.538 8.538 0 01-.785-13.696l106.513-88.772v-67.115a8.53 8.53 0 018.533-8.533h85.333a8.53 8.53 0 018.533 8.533V503.47a8.531 8.531 0 01-8.533 8.533zM322.869 374.949l172.066 112.734V221.87h-68.267v62.575a8.558 8.558 0 01-3.072 6.562l-100.727 83.942zm95.266-90.504h.085-.085zM8.535 512.003a8.53 8.53 0 01-8.533-8.533V213.337a8.53 8.53 0 018.533-8.533h85.333a8.53 8.53 0 018.533 8.533v67.106l106.513 88.764a8.558 8.558 0 013.055 7.049 8.535 8.535 0 01-3.84 6.647L13.211 510.612a8.508 8.508 0 01-4.676 1.391zm8.533-290.133v265.813l172.066-112.734-100.727-83.942a8.544 8.544 0 01-3.072-6.562V221.87H17.068z" data-original="#4d007e"/><path d="M93.868 221.87H8.535a8.54 8.54 0 01-8.03-5.641 8.538 8.538 0 012.586-9.463l85.333-70.613a8.547 8.547 0 019.071-1.152 8.53 8.53 0 014.907 7.723v70.613a8.53 8.53 0 01-8.534 8.533zm-61.636-17.067h53.103v-43.938l-53.103 43.938zM317.868 68.27H194.135a8.54 8.54 0 01-8.03-5.641 8.538 8.538 0 012.586-9.463l61.867-51.2a8.513 8.513 0 0110.88 0l61.867 51.2a8.532 8.532 0 01-5.437 15.104zM217.832 51.203h76.339l-38.17-31.59-38.169 31.59zM503.468 221.87h-85.333a8.53 8.53 0 01-8.533-8.533v-35.849a8.526 8.526 0 016.844-8.363c8.883-1.792 17.425-5.248 25.395-10.257a8.55 8.55 0 019.984.649l57.088 47.249a8.529 8.529 0 012.586 9.463 8.542 8.542 0 01-8.031 5.641zm-76.8-17.067h53.103l-34.244-28.339a92.404 92.404 0 01-18.859 7.723v20.616z" data-original="#4d007e"/><path d="M401.068 187.737c-51.755 0-93.867-42.112-93.867-93.867S349.313.003 401.068.003s93.867 42.112 93.867 93.867-42.104 93.867-93.867 93.867zm0-170.667c-42.351 0-76.8 34.449-76.8 76.8s34.449 76.8 76.8 76.8 76.8-34.449 76.8-76.8-34.449-76.8-76.8-76.8z" data-original="#4d007e"/><path d="M392.535 128.003a8.489 8.489 0 01-6.033-2.5l-25.6-25.6a8.523 8.523 0 010-12.066 8.523 8.523 0 0112.066 0l18.995 18.995 36.685-44.023c3.021-3.627 8.397-4.096 12.015-1.092 3.618 3.021 4.113 8.397 1.092 12.023l-42.667 51.2a8.498 8.498 0 01-6.17 3.055c-.127.008-.255.008-.383.008zm-68.267 93.867h-59.733a8.53 8.53 0 01-8.533-8.533 8.53 8.53 0 018.533-8.533h59.733a8.53 8.53 0 018.533 8.533 8.53 8.53 0 01-8.533 8.533zm-93.866 0h-93.867a8.53 8.53 0 01-8.533-8.533 8.53 8.53 0 018.533-8.533h93.867a8.53 8.53 0 018.533 8.533 8.53 8.53 0 01-8.533 8.533zm119.466 85.333h-59.733a8.53 8.53 0 01-8.533-8.533 8.53 8.53 0 018.533-8.533h59.733a8.53 8.53 0 018.533 8.533 8.53 8.53 0 01-8.533 8.533zm-93.866 0h-93.867a8.53 8.53 0 01-8.533-8.533 8.53 8.53 0 018.533-8.533h93.867a8.53 8.53 0 018.533 8.533 8.53 8.53 0 01-8.533 8.533zm119.466-85.333h-17.067a8.53 8.53 0 01-8.533-8.533 8.53 8.53 0 018.533-8.533h17.067a8.53 8.53 0 018.533 8.533 8.53 8.53 0 01-8.533 8.533zm-128 42.667h-59.733c-4.71 0-8.533-3.814-8.533-8.533s3.823-8.533 8.533-8.533h59.733c4.71 0 8.533 3.814 8.533 8.533s-3.822 8.533-8.533 8.533zm128 0h-93.867c-4.71 0-8.533-3.814-8.533-8.533s3.823-8.533 8.533-8.533h93.867c4.71 0 8.533 3.814 8.533 8.533s-3.822 8.533-8.533 8.533zm-187.733-85.334h-59.733c-4.71 0-8.533-3.814-8.533-8.533s3.823-8.533 8.533-8.533h59.733c4.71 0 8.533 3.814 8.533 8.533s-3.823 8.533-8.533 8.533zm128 0h-93.867c-4.71 0-8.533-3.814-8.533-8.533s3.823-8.533 8.533-8.533h93.867c4.71 0 8.533 3.814 8.533 8.533s-3.823 8.533-8.533 8.533zm-162.133 85.334h-17.067c-4.71 0-8.533-3.814-8.533-8.533s3.823-8.533 8.533-8.533h17.067c4.71 0 8.533 3.814 8.533 8.533s-3.823 8.533-8.533 8.533zm136.533-128h-102.4a8.53 8.53 0 01-8.533-8.533 8.53 8.53 0 018.533-8.533h102.4a8.53 8.53 0 018.533 8.533 8.531 8.531 0 01-8.533 8.533zm-136.533 0h-17.067a8.53 8.53 0 01-8.533-8.533 8.53 8.53 0 018.533-8.533h17.067a8.53 8.53 0 018.533 8.533 8.531 8.531 0 01-8.533 8.533z" data-original="#4d007e"/><path d="M308.55 384.31a8.551 8.551 0 01-4.676-1.391l-28.348-18.577a35.593 35.593 0 00-39.04-.009L208.13 382.92a8.539 8.539 0 01-10.138-.58L88.407 291.007a8.544 8.544 0 01-3.072-6.562V59.737a8.53 8.53 0 018.533-8.533h229.018a8.533 8.533 0 017.142 3.866 8.489 8.489 0 01.674 8.081c-4.267 9.771-6.434 20.105-6.434 30.72 0 42.351 34.449 76.8 76.8 76.8 5.163 0 10.334-.521 15.36-1.545a8.53 8.53 0 017.1 1.749 8.55 8.55 0 013.14 6.613v106.957a8.558 8.558 0 01-3.072 6.562l-109.585 91.324a8.487 8.487 0 01-5.461 1.979zm-52.548-42.871a52.616 52.616 0 0128.877 8.627l23.066 15.113 101.658-84.727v-93.09a98.296 98.296 0 01-8.533.375c-51.755 0-93.867-42.112-93.867-93.867a93.305 93.305 0 013.558-25.6H102.402v212.173L204.06 365.17l23.066-15.113a52.673 52.673 0 0128.876-8.618z" data-original="#4d007e"/></g></svg>