<svg xmlns="http://www.w3.org/2000/svg" viewBox="0 0 512 512"><path fill="#eee" d="M466 412H46c-8.284 0-15 6.716-15 15v70c0 8.284 6.716 15 15 15h420c8.284 0 15-6.716 15-15v-70c0-8.284-6.716-15-15-15zM256 0c-49.626 0-90 40.374-90 90 0 29.156 10.733 35.099 23.57 81h132.859C335.723 123.473 346 119.77 346 90c0-49.626-40.374-90-90-90zm157.608 353.466A15 15 0 00399.03 342h-80.875c-13.694-51.965-10.358-102.113-2.819-141H196.664c7.54 38.888 10.875 89.036-2.818 141H112.97a15.001 15.001 0 00-14.578 11.466L91.474 382h329.052l-6.918-28.534z"/></svg>