<svg height="512" width="512" xmlns="http://www.w3.org/2000/svg"><path clip-rule="evenodd" d="M73.207 333.445L7.785 151.585c-.94-2.648.456-5.582 3.104-6.55 86.014-30.927 182.936-59.69 265.788-95.031 3.703-2.335 6.608-.028 8.203 4.386l102.789 264.873 27.912 77.602c.94 2.648-.427 5.61-3.076 6.55l-196.692 70.711-76.672 27.567c-2.649.968-5.582-.427-6.551-3.076z" fill="#fff" fill-rule="evenodd"/><path clip-rule="evenodd" d="M127.748 273.1L95.08 82.64a5.13 5.13 0 014.158-5.923l224.974-38.559 51.523-8.486c2.82-1.225 7.405.199 8.487 6.493l55.653 277.831 13.927 81.276c.484 2.762-1.396 5.439-4.158 5.923l-206.006 35.313-80.317 13.783c-2.763.456-5.44-1.424-5.924-4.186z" fill="#fff" fill-rule="evenodd"/><path clip-rule="evenodd" d="M190.778 216.942v183.113c0 2.933 2.392 5.354 5.326 5.354h303.071c2.934 0 5.326-2.421 5.326-5.354V73.896h-54.115c-5.212 0-16.035.74-16.035-11.078l-.114-52.827H196.104a5.335 5.335 0 00-5.326 5.325V80.36z" fill="#fff" fill-rule="evenodd"/><path clip-rule="evenodd" d="M100.492 114.222c-30.475 10.252-60.665 20.419-89.602 30.813-2.649.968-4.044 3.901-3.104 6.55l65.422 181.86 59.384 165.172c.968 2.648 3.902 4.044 6.551 3.076l76.672-27.567 174.705-62.794z" fill="#b5c4cf" fill-rule="evenodd"/><path clip-rule="evenodd" d="M190.778 61.025L99.239 76.716a5.13 5.13 0 00-4.158 5.923l5.411 31.582L127.748 273.1l29.649 173.004c.484 2.762 3.161 4.642 5.924 4.186l80.317-13.783 146.878-25.175 34.548-5.923H406.98z" fill="#d7e7ec" fill-rule="evenodd"/><path clip-rule="evenodd" d="M504.5 314.023V73.07c0-1.538-.655-1.794-3.019-4.101l-58.415-55.703c-2.763-2.62-3.218-3.275-4.842-3.275h-242.12a5.335 5.335 0 00-5.326 5.325v384.737c0 2.933 2.392 5.354 5.326 5.354h303.07c2.934 0 5.326-2.421 5.326-5.354z" fill="#edf3f4" fill-rule="evenodd"/><path clip-rule="evenodd" d="M190.778 61.025l-21.446 3.674v355.035c0 2.962 2.392 5.354 5.326 5.354h135.6l80.26-13.755 34.548-5.923H196.104c-2.934 0-5.326-2.421-5.326-5.354V61.025z" fill="#b5c4cf" fill-rule="evenodd"/><path clip-rule="evenodd" d="M127.748 273.1l-27.257-158.878a9906.34 9906.34 0 00-22.045 7.433l3.389 19.735 27.257 158.878 29.678 173.004c.456 2.762 3.133 4.642 5.896 4.186l80.317-13.783 38.108-6.521 114.78-41.293-1.367-2.136-66.248 11.363-66.618 11.42-80.317 13.783c-2.763.456-5.44-1.424-5.924-4.186z" fill="#9aafb7" fill-rule="evenodd"/><path clip-rule="evenodd" d="M504.5 314.023V73.896c0-2.876-.94-2.905-3.019-4.927l-58.415-55.703c-2.763-2.62-3.218-3.275-4.842-3.275h-63.257c72.428 96.939 76.558 271.68 22.814 380.75a254.65 254.65 0 01-7.775 14.666h109.17c2.934 0 5.326-2.421 5.326-5.354v-86.03z" fill="#d7e7ec" fill-rule="evenodd"/><path clip-rule="evenodd" d="M434.35 62.819c0 11.818 10.823 11.078 16.035 11.078H504.5v-.826c0-1.538-.655-1.794-3.019-4.101l-58.415-55.703c-2.763-2.62-3.218-3.275-4.842-3.275h-3.987z" fill="#fff" fill-rule="evenodd"/><path clip-rule="evenodd" d="M501.481 68.97l-58.415-55.703c-2.763-2.62-3.218-3.275-4.842-3.275h-3.987l.114 52.827c0 11.818 10.823 11.078 16.035 11.078H504.5v-.826c0-1.538-.655-1.794-3.019-4.101z" fill="#b5c4cf" fill-rule="evenodd"/><path d="M507.786 64.62c-.304-.286-60.445-57.641-60.445-57.641-2.299-2.206-4.677-4.486-9.117-4.486h-242.12c-7.072 0-12.826 5.754-12.826 12.825v39.383L97.943 69.329c-6.84 1.2-11.44 7.746-10.255 14.579l4.331 25.252c-27.737 9.334-56.214 18.956-83.705 28.831-6.496 2.375-9.905 9.598-7.587 16.133L55.411 306.14a7.502 7.502 0 007.058 4.963 7.5 7.5 0 007.057-10.041L15.651 151.295c25.9-9.273 52.722-18.349 78.935-27.172l25.771 150.245L150.011 447.4c1.071 6.108 6.44 10.454 12.5 10.454.686 0 1.382-.056 2.08-.171l80.316-13.783 62.76-10.758-94.391 33.927-74.435 26.763-57.808-160.789a7.5 7.5 0 10-14.115 5.075l58.628 163.074c1.875 5.128 6.733 8.316 11.868 8.316 1.419 0 2.86-.244 4.264-.757l76.671-27.566 174.094-62.575 33.259-5.701h73.471c7.072 0 12.826-5.766 12.826-12.854V73.071c.001-4.489-2.435-6.779-4.213-8.451zm-19.871 1.777h-37.53l-.93.004c-1.797.012-6.004.043-7.071-1.017-.246-.245-.534-1.063-.534-2.582l-.087-40.415zM497 397.908H198.278V251.741a7.5 7.5 0 00-15 0v148.313c0 7.088 5.754 12.854 12.826 12.854h140.812l-94.545 16.206-77.982 13.383-29.248-170.665-32.269-188.13 80.405-13.783v147.022a7.5 7.5 0 0015 0V17.492h228.475l.098 45.326c0 5.494 1.671 9.938 4.966 13.21 5.063 5.027 12.22 5.377 16.663 5.377.382 0 .744-.003 1.083-.005L497 81.397z"/><path d="M456.366 126.449H241.93a7.5 7.5 0 010-15h214.436a7.5 7.5 0 010 15zm0 53.282H241.93a7.5 7.5 0 010-15h214.436a7.5 7.5 0 010 15zm0 53.283H241.93a7.5 7.5 0 010-15h214.436a7.5 7.5 0 010 15zm0 53.282H241.93a7.5 7.5 0 010-15h214.436a7.5 7.5 0 010 15zm0 53.282H241.93a7.5 7.5 0 010-15h214.436a7.5 7.5 0 010 15z"/></svg>