<svg height="512" width="512" xmlns="http://www.w3.org/2000/svg"><path d="M437.02 74.98C388.667 26.628 324.38 0 256 0S123.333 26.628 74.98 74.98 0 187.62 0 256s26.628 132.667 74.98 181.02S187.62 512 256 512s132.667-26.628 181.02-74.98S512 324.38 512 256s-26.628-132.667-74.98-181.02zM256.02 432c-8.836 0-16.005-7.164-16.005-16s7.158-16 15.995-16h.01c8.836 0 16 7.164 16 16s-7.164 16-16 16zm50.892-164.285C284.398 290.229 272 320.162 272 352c0 8.836-7.164 16-16 16s-16-7.164-16-16c0-40.386 15.727-78.354 44.285-106.912C302.157 227.215 312 203.453 312 178.177 312 150.509 289.491 128 261.823 128h-3.646C230.509 128 208 150.509 208 178.177V184c0 8.836-7.164 16-16 16s-16-7.164-16-16v-5.823C176 132.864 212.864 96 258.177 96h3.646C307.136 96 344 132.864 344 178.177c0 33.823-13.171 65.622-37.088 89.538z"/></svg>