<svg height="512" width="512" xmlns="http://www.w3.org/2000/svg"><path d="M503.99 105.37c-6.86-8.5-17.07-13.37-28-13.37H85.737l-3.485-24.976C79.784 49.338 64.456 36 46.597 36H16C7.164 36 0 43.163 0 52s7.164 16 16 16h30.597a4.016 4.016 0 013.961 3.447l5.39 38.629c.006.045.005.089.011.134l31.26 224 .011.057 6.517 46.708C96.216 398.662 111.544 412 129.403 412h17.349A47.774 47.774 0 00144 428c0 26.467 21.533 48 48 48s48-21.533 48-48c0-5.609-.976-10.992-2.752-16h85.504A47.774 47.774 0 00320 428c0 26.467 21.533 48 48 48s48-21.533 48-48c0-5.609-.976-10.992-2.752-16H448c8.836 0 16-7.164 16-16s-7.164-16-16-16H129.403a4.016 4.016 0 01-3.961-3.447L121.457 348H436.56c16.86 0 31.66-11.97 35.21-28.46l39.42-183.99c2.29-10.69-.33-21.68-7.2-30.18zm-24.301 37.767l-32 160c-1.521 7.606-8.202 12.865-15.672 12.865-1.041 0-2.096-.102-3.155-.313-8.665-1.733-14.285-10.162-12.552-18.827l32-160c1.733-8.666 10.163-14.287 18.827-12.552 8.666 1.734 14.285 10.162 12.552 18.827z"/></svg>