<svg height="512" width="512" xmlns="http://www.w3.org/2000/svg"><path d="M256 192c-44.112 0-80 35.888-80 80v160c0 44.112 35.888 80 80 80s80-35.888 80-80V272c0-44.112-35.888-80-80-80zm48 231.111C304 454.533 280.807 480 252.19 480c-.492 0-.983-.008-1.471-.022-4.808-.147-6.732-6.278-2.809-9.063 14.267-10.129 23.709-27.752 23.709-47.803V280.889c0-20.051-9.443-37.675-23.709-47.803-3.923-2.785-1.999-8.916 2.809-9.063a47.96 47.96 0 011.471-.022c28.617 0 51.81 25.467 51.81 56.889zM256 0c-44.112 0-80 35.888-80 80s35.888 80 80 80 80-35.888 80-80-35.888-80-80-80zm1.818 127.966c-.663.024-1.324.035-1.981.033-4.512-.015-6.311-5.908-2.597-8.471C265.781 110.872 274 96.398 274 80c0-16.399-8.219-30.873-20.761-39.529-3.711-2.562-1.917-8.455 2.592-8.471H256c27.194 0 49.101 22.606 47.957 50.054-1.035 24.826-21.308 44.996-46.139 45.912z"/></svg>