<svg height="512" width="512" xmlns="http://www.w3.org/2000/svg"><path d="M400 338.752V208c0-73.994-56.101-135.121-128-143.106V40c0-4.411 3.589-8 8-8s8 3.589 8 8c0 8.836 7.163 16 16 16s16-7.164 16-16c0-22.056-17.944-40-40-40s-40 17.944-40 40v24.894C168.101 72.879 112 134.006 112 208v130.752c-18.622 6.605-32 24.39-32 45.248 0 26.467 21.533 48 48 48h66.043A64.037 64.037 0 00192 448c0 35.29 28.71 64 64 64s64-28.71 64-64c0-5.448-.706-10.816-2.043-16H384c26.467 0 48-21.533 48-48 0-20.858-13.378-38.643-32-45.248zM256 96c61.757 0 112 51.087 112 113.882V320c0 8.836-7.163 16-16 16s-16-7.164-16-16V209.882c0-45.15-35.888-81.882-80-81.882-8.837 0-16-7.164-16-16s7.163-16 16-16zm128 304H128c-8.822 0-16-7.178-16-16s7.178-16 16-16h256c8.822 0 16 7.178 16 16s-7.178 16-16 16z"/></svg>