<svg height="512" width="512" xmlns="http://www.w3.org/2000/svg"><path d="M399.98 402.421c.018-1.072.024-2.147.018-3.224-.43-78.454-64.434-142.599-142.887-143.193C177.201 255.398 112 320.228 112 400c0 1.112.013 2.222.038 3.328 1.095 48.019 34.827 89.15 81.4 100.897A255.807 255.807 0 00256 512a255.82 255.82 0 0062.551-7.772c46.901-11.827 80.627-53.444 81.429-101.807z"/><path d="M437.012 74.972C388.943 26.907 323.976 0 255.999 0 187.619 0 123.332 26.629 74.98 74.98 26.628 123.332 0 187.619 0 256c0 60.347 21.397 118.944 60.256 165.004a258.774 258.774 0 0014.245 15.531c3.463 3.48 9.315.339 8.423-4.489A176.301 176.301 0 0180 400c0-73.03 44.711-135.812 108.198-162.414 3.295-1.381 4.145-5.705 1.56-8.172-19.08-18.214-30.69-44.188-29.699-72.803 1.731-49.986 42.17-90.602 92.149-92.537C306.862 61.957 352 105.807 352 160c0 27.273-11.435 51.921-29.759 69.414-2.584 2.467-1.733 6.791 1.561 8.172C387.289 264.188 432 326.97 432 400c0 10.941-1.004 21.652-2.925 32.045-.892 4.828 4.96 7.969 8.423 4.489a258.383 258.383 0 0014.25-15.537C490.603 374.945 512 316.348 512 256c0-68.385-26.631-132.676-74.988-181.028z"/><circle cx="256" cy="160" r="64"/></svg>