<?xml version="1.0" encoding="iso-8859-1"?>
<!-- Generator: Adobe Illustrator 19.0.0, SVG Export Plug-In . SVG Version: 6.00 Build 0)  -->
<svg version="1.1" id="Capa_1" xmlns="http://www.w3.org/2000/svg" xmlns:xlink="http://www.w3.org/1999/xlink" x="0px" y="0px"
	 viewBox="0 0 512 512" style="enable-background:new 0 0 512 512;" xml:space="preserve">
<g>
	<g>
		<path fill="#eee" d="M466,412H46c-8.284,0-15,6.716-15,15v70c0,8.284,6.716,15,15,15h420c8.284,0,15-6.716,15-15v-70
			C481,418.716,474.284,412,466,412z"/>
	</g>
</g>
<g>
	<g>
		<path fill="#eee" d="M256,0c-49.626,0-90,40.374-90,90c0,29.156,10.733,35.099,23.57,81h132.859C335.723,123.473,346,119.77,346,90
			C346,40.374,305.626,0,256,0z"/>
	</g>
</g>
<g>
	<g>
		<path fill="#eee" d="M413.608,353.466C411.977,346.738,405.953,342,399.03,342h-80.875c-13.694-51.965-10.358-102.113-2.819-141H196.664
			c7.54,38.888,10.875,89.036-2.818,141H112.97c-6.923,0-12.946,4.738-14.578,11.466L91.474,382h329.052L413.608,353.466z"/>
	</g>
</g>
<g>
</g>
<g>
</g>
<g>
</g>
<g>
</g>
<g>
</g>
<g>
</g>
<g>
</g>
<g>
</g>
<g>
</g>
<g>
</g>
<g>
</g>
<g>
</g>
<g>
</g>
<g>
</g>
<g>
</g>
</svg>
