<?xml version="1.0"?>
<svg xmlns="http://www.w3.org/2000/svg" xmlns:xlink="http://www.w3.org/1999/xlink" xmlns:svgjs="http://svgjs.com/svgjs" version="1.1" width="512" height="512" x="0" y="0" viewBox="0 0 512 512" style="enable-background:new 0 0 512 512" xml:space="preserve" class=""><g><path xmlns="http://www.w3.org/2000/svg" d="m449.466 117.55c0 12.451 8.773 22.841 20.451 25.277 2.296.479 3.913 2.548 3.913 4.894v31.955c0 2.346-1.616 4.415-3.913 4.894-11.678 2.436-20.451 12.826-20.451 25.277s8.773 22.841 20.451 25.277c2.296.479 3.913 2.548 3.913 4.894v31.966c0 2.346-1.617 4.415-3.913 4.894-11.678 2.436-20.451 12.826-20.451 25.277s8.773 22.841 20.451 25.277c2.296.479 3.913 2.548 3.913 4.894v31.954c0 2.346-1.616 4.415-3.913 4.894-11.678 2.436-20.451 12.826-20.451 25.277s8.773 22.841 20.451 25.277c2.296.479 3.913 2.548 3.913 4.894v74.874c0 2.773-2.248 5.022-5.022 5.022h-23.997c-2.406 0-4.51-1.7-4.926-4.07-2.129-12.1-12.648-21.285-25.308-21.285s-23.18 9.185-25.308 21.285c-.417 2.369-2.521 4.07-4.926 4.07h-31.444c-2.406 0-4.51-1.7-4.926-4.07-2.128-12.1-12.648-21.285-25.308-21.285s-23.18 9.185-25.308 21.285c-.417 2.369-2.521 4.07-4.926 4.07h-31.455c-2.406 0-4.51-1.7-4.926-4.07-2.129-12.1-12.648-21.285-25.308-21.285s-23.18 9.185-25.308 21.285c-.417 2.369-2.521 4.07-4.926 4.07h-31.444c-2.406 0-4.51-1.7-4.926-4.07-2.128-12.1-12.648-21.285-25.308-21.285s-23.18 9.185-25.308 21.285c-.417 2.369-2.521 4.07-4.926 4.07h-24.003c-2.773 0-5.022-2.248-5.022-5.022v-74.874c0-2.346 1.616-4.415 3.913-4.894 11.678-2.436 20.451-12.826 20.451-25.277s-8.773-22.841-20.451-25.277c-2.296-.479-3.913-2.548-3.913-4.894v-31.954c0-2.346 1.616-4.415 3.913-4.894 11.678-2.436 20.451-12.826 20.451-25.277s-8.773-22.841-20.451-25.277c-2.296-.479-3.913-2.548-3.913-4.894v-31.966c0-2.346 1.617-4.415 3.913-4.894 11.678-2.436 20.451-12.826 20.451-25.277s-8.773-22.841-20.451-25.277c-2.296-.479-3.913-2.548-3.913-4.894v-31.955c0-2.346 1.616-4.415 3.913-4.894 11.678-2.436 20.451-12.826 20.451-25.277s-8.773-22.841-20.451-25.277c-2.296-.479-3.913-2.548-3.913-4.894v-74.874c0-2.773 2.248-5.022 5.022-5.022h23.997c2.406 0 4.51 1.7 4.926 4.07 2.128 12.1 12.648 21.285 25.308 21.285s23.18-9.185 25.308-21.285c.417-2.369 2.521-4.07 4.926-4.07h31.444c2.406 0 4.51 1.7 4.926 4.07 2.128 12.1 12.648 21.285 25.308 21.285s23.18-9.185 25.308-21.285c.417-2.369 2.521-4.07 4.926-4.07h31.455c2.406 0 4.51 1.7 4.926 4.07 2.129 12.1 12.648 21.285 25.308 21.285s23.18-9.185 25.308-21.285c.417-2.369 2.521-4.07 4.926-4.07h31.444c2.406 0 4.51 1.7 4.926 4.07 2.128 12.1 12.648 21.285 25.308 21.285s23.18-9.185 25.308-21.285c.417-2.369 2.521-4.07 4.926-4.07h23.997c2.773 0 5.022 2.248 5.022 5.022v74.874c0 2.346-1.616 4.415-3.913 4.894-11.672 2.436-20.445 12.826-20.445 25.277z" fill="#d7e7ec" data-original="#ff5757" style="" class=""/><path xmlns="http://www.w3.org/2000/svg" d="m449.469 117.547c0 12.454 8.768 22.839 20.449 25.279 2.3.482 3.907 2.551 3.907 4.891v31.958c0 2.34-1.607 4.409-3.907 4.891-11.681 2.441-20.449 12.826-20.449 25.279 0 12.454 8.768 22.839 20.449 25.28 2.3.472 3.907 2.541 3.907 4.891v31.969c0 2.34-1.607 4.409-3.907 4.891-11.681 2.431-20.449 12.826-20.449 25.28 0 12.444 8.768 22.839 20.449 25.27 2.3.482 3.907 2.551 3.907 4.901v31.948c0 2.35-1.607 4.419-3.907 4.901-11.681 2.43-20.449 12.825-20.449 25.269 0 12.454 8.768 22.839 20.449 25.279 2.3.482 3.907 2.551 3.907 4.891v74.875c0 2.772-2.24 5.022-5.022 5.022h-23.994c-.532 0-1.055-.08-1.537-.241 2.009-.663 3.465-2.551 3.465-4.781v-74.875c0-2.34-1.617-4.409-3.917-4.891-11.681-2.441-20.449-12.826-20.449-25.279 0-12.444 8.768-22.839 20.449-25.269 2.3-.482 3.917-2.551 3.917-4.901v-31.948c0-2.35-1.617-4.419-3.917-4.901-11.681-2.431-20.449-12.826-20.449-25.27 0-12.454 8.768-22.849 20.449-25.28 2.3-.482 3.917-2.551 3.917-4.891v-31.969c0-2.35-1.617-4.419-3.917-4.891-11.681-2.441-20.449-12.826-20.449-25.28s8.768-22.839 20.449-25.279c2.3-.482 3.917-2.551 3.917-4.891v-31.958c0-2.34-1.617-4.409-3.917-4.891-11.681-2.441-20.449-12.826-20.449-25.279 0-12.444 8.768-22.839 20.449-25.27 2.3-.482 3.917-2.551 3.917-4.901v-74.874c0-2.23-1.456-4.118-3.465-4.781.482-.161 1.004-.241 1.537-.241h23.994c2.782 0 5.022 2.25 5.022 5.022v74.875c0 2.35-1.607 4.419-3.907 4.901-11.681 2.43-20.449 12.825-20.449 25.269z" fill="#b5c4cf" data-original="#f72c2c" style="" class=""/><path xmlns="http://www.w3.org/2000/svg" d="m410.408 443.316h-267.414c-3.328 0-6.026-2.698-6.026-6.026v-362.58c0-3.328 2.698-6.026 6.026-6.026h267.414c3.328 0 6.026 2.698 6.026 6.026v362.58c0 3.328-2.698 6.026-6.026 6.026z" fill="#b5c4cf" data-original="#c9f0ff" style="" class=""/><path xmlns="http://www.w3.org/2000/svg" d="m416.436 74.711v362.582c0 3.324-2.702 6.026-6.026 6.026h-23.08c3.324 0 6.026-2.702 6.026-6.026v-362.582c0-3.324-2.702-6.026-6.026-6.026h23.08c3.324 0 6.026 2.702 6.026 6.026z" fill="#9ca4aa" data-original="#9ae7fd" style="" class=""/><path xmlns="http://www.w3.org/2000/svg" d="m416.206 323.634-66.778-75.257c-3.781-4.261-10.369-4.458-14.397-.431l-37.714 37.696-50.427-56.829c-3.781-4.261-10.369-4.458-14.397-.431l-95.297 95.252h-.228v113.656c0 3.328 2.698 6.026 6.026 6.026h267.414c3.328 0 6.026-2.698 6.026-6.026v-113.656z" fill="#ffffff" data-original="#a3e72d" style="" class=""/><circle xmlns="http://www.w3.org/2000/svg" cx="345.146" cy="158.433" fill="#ffffff" r="41.559" data-original="#ffcd6b" style="" class=""/><path xmlns="http://www.w3.org/2000/svg" d="m386.707 158.434c0 22.949-18.611 41.56-41.56 41.56-12.022 0-22.849-5.102-30.432-13.268 3.937 1.245 8.135 1.908 12.484 1.908 22.949 0 41.55-18.611 41.55-41.56 0-10.937-4.218-20.87-11.128-28.293 16.853 5.294 29.086 21.052 29.086 39.653z" fill="#b5c4cf" data-original="#ffb509" style="" class=""/><path xmlns="http://www.w3.org/2000/svg" d="m416.436 323.63v113.663c0 3.324-2.702 6.026-6.026 6.026h-23.08c3.324 0 6.026-2.702 6.026-6.026v-139.415l22.849 25.752z" fill="#e9ede2" data-original="#80cf00" style="" class=""/><path xmlns="http://www.w3.org/2000/svg" d="m471.443 99.6c5.72-1.192 9.871-6.331 9.871-12.221v-74.874c0-6.895-5.61-12.505-12.506-12.505h-23.997c-6.082 0-11.253 4.315-12.297 10.256-1.539 8.748-9.083 15.097-17.938 15.097s-16.398-6.349-17.937-15.097c-1.046-5.943-6.218-10.256-12.297-10.256h-31.444c-6.08 0-11.251 4.313-12.298 10.257-1.539 8.748-9.082 15.096-17.937 15.096s-16.398-6.35-17.938-15.094c-1.044-5.944-6.215-10.259-12.297-10.259h-31.456c-6.08 0-11.25 4.313-12.297 10.257-1.539 8.748-9.083 15.096-17.938 15.096s-16.398-6.349-17.937-15.097c-1.045-5.943-6.217-10.256-12.297-10.256h-31.444c-6.082 0-11.253 4.315-12.297 10.256-1.54 8.748-9.083 15.097-17.938 15.097s-16.398-6.349-17.937-15.097c-1.045-5.943-6.217-10.256-12.297-10.256h-23.997c-6.895 0-12.505 5.61-12.505 12.505v74.874c0 5.889 4.151 11.028 9.868 12.22 8.399 1.752 14.495 9.302 14.495 17.951s-6.096 16.198-14.494 17.951c-5.718 1.192-9.869 6.331-9.869 12.22v31.955c0 5.889 4.151 11.028 9.868 12.22 8.399 1.752 14.495 9.302 14.495 17.952 0 8.649-6.096 16.198-14.497 17.95-5.717 1.194-9.866 6.333-9.866 12.22v31.966c0 5.887 4.149 11.026 9.868 12.22 8.399 1.752 14.495 9.301 14.495 17.95s-6.096 16.199-14.494 17.952c-5.718 1.192-9.869 6.331-9.869 12.22v6.178c-8.181-3.691-18.313-6.839-33.918-6.839-4.134 0-7.484 3.35-7.484 7.484s3.35 7.484 7.484 7.484c16.719 0 24.928 3.894 33.918 8.535v9.112c0 1.935.455 3.784 1.26 5.444-8.403-3.935-18.763-7.417-35.178-7.417-4.134 0-7.484 3.35-7.484 7.484s3.35 7.484 7.484 7.484c17.443 0 25.621 4.236 35.089 9.14 6.366 3.298 13.289 6.88 23.151 8.983-.267 5.162-2.691 9.857-6.458 13.064-3.404-1.389-6.533-3-9.809-4.697-9.788-5.071-20.885-10.818-41.973-10.818-4.134 0-7.484 3.35-7.484 7.484s3.35 7.484 7.484 7.484c17.443 0 25.621 4.236 35.089 9.14.334.173.669.347 1.007.521-1.379 2.025-2.178 4.462-2.178 7.045v74.874c0 6.896 5.61 12.505 12.505 12.505h23.997c6.08 0 11.251-4.313 12.298-10.257 1.539-8.748 9.082-15.096 17.937-15.096s16.398 6.35 17.938 15.095c1.044 5.944 6.215 10.258 12.297 10.258h31.444c6.08 0 11.251-4.313 12.298-10.257 1.539-8.748 9.082-15.096 17.937-15.096s16.399 6.349 17.938 15.098c1.047 5.942 6.218 10.255 12.297 10.255h31.456c6.082 0 11.253-4.314 12.297-10.256 1.54-8.748 9.083-15.097 17.938-15.097s16.398 6.349 17.937 15.098c1.047 5.942 6.218 10.255 12.298 10.255h31.444c6.08 0 11.251-4.313 12.298-10.257 1.539-8.748 9.082-15.096 17.937-15.096s16.399 6.35 17.938 15.095c1.044 5.944 6.215 10.258 12.297 10.258h23.997c6.896 0 12.506-5.61 12.506-12.506l-.005-25.965c-.001-4.134-3.352-7.484-7.485-7.483-4.134.001-7.484 3.352-7.483 7.485l.005 23.502h-19.534c-3.598-14.815-16.826-25.354-32.236-25.354s-28.639 10.54-32.236 25.354h-27.441c-3.597-14.815-16.826-25.354-32.236-25.354-15.409 0-28.638 10.539-32.236 25.354h-27.452c-3.597-14.815-16.826-25.354-32.237-25.354-15.41 0-28.639 10.54-32.236 25.354h-27.441c-3.598-14.815-16.826-25.354-32.236-25.354s-28.64 10.54-32.236 25.354h-19.536v-70.474c1.611-.445 3.165-1.015 4.662-1.686 6.3 1.793 13.857 3 23.514 3 5.347 0 10.049-.371 14.252-1.005v10.423c0 7.45 6.06 13.51 13.51 13.51h267.414c7.45 0 13.51-6.06 13.51-13.51v-362.581c0-7.45-6.06-13.51-13.51-13.51h-202.617c-4.134 0-7.484 3.35-7.484 7.484s3.35 7.484 7.484 7.484h201.159v228.012l-53.925-60.771c-3.165-3.567-7.713-5.693-12.479-5.836-4.793-.149-9.434 1.708-12.806 5.079l-32.096 32.082-45.156-50.889c-3.165-3.567-7.714-5.694-12.48-5.836-4.748-.139-9.433 1.708-12.805 5.08l-82.75 82.711v-229.632h30.762c4.134 0 7.484-3.35 7.484-7.484s-3.35-7.484-7.484-7.484h-32.219c-7.45 0-13.51 6.06-13.51 13.51v275.72c-4.034.752-8.664 1.191-14.252 1.191-13.15 0-21.034-2.409-28.176-5.696v-11.664c14.237-3.938 24.364-17.117 24.364-32.109s-10.128-28.172-24.364-32.107v-28.092c14.236-3.938 24.364-17.116 24.364-32.107 0-14.992-10.127-28.171-24.364-32.109v-28.08c14.236-3.938 24.364-17.116 24.364-32.108s-10.127-28.171-24.364-32.108v-70.473h19.533c3.597 14.815 16.826 25.354 32.236 25.354 15.409 0 28.637-10.538 32.236-25.354h27.441c3.597 14.815 16.826 25.354 32.236 25.354 15.411 0 28.64-10.54 32.237-25.354h27.452c3.598 14.815 16.826 25.354 32.236 25.354s28.64-10.54 32.236-25.354h27.441c3.597 14.815 16.826 25.354 32.236 25.354 15.409 0 28.637-10.538 32.236-25.354h19.534v70.474c-14.238 3.936-24.365 17.115-24.365 32.108 0 14.991 10.127 28.17 24.365 32.108v28.08c-14.238 3.936-24.365 17.115-24.365 32.109 0 14.992 10.128 28.172 24.365 32.108v28.091c-14.238 3.936-24.365 17.115-24.365 32.107 0 14.99 10.127 28.17 24.365 32.109v28.08c-14.238 3.936-24.365 17.115-24.365 32.108 0 14.992 10.127 28.171 24.365 32.108v13.906c0 4.134 3.35 7.484 7.484 7.484s7.484-3.35 7.484-7.484v-15.843c0-5.89-4.151-11.029-9.869-12.22-8.399-1.752-14.495-9.302-14.495-17.951s6.096-16.198 14.496-17.951c5.718-1.194 9.868-6.333 9.868-12.22v-31.955c0-5.89-4.151-11.029-9.868-12.22-8.4-1.753-14.496-9.302-14.496-17.952 0-8.649 6.096-16.198 14.496-17.95 5.718-1.194 9.868-6.333 9.868-12.22v-31.966c0-5.887-4.15-11.026-9.869-12.22-8.399-1.752-14.495-9.301-14.495-17.95s6.096-16.2 14.493-17.951c5.72-1.192 9.871-6.331 9.871-12.221v-31.955c0-5.89-4.151-11.029-9.869-12.22-8.399-1.752-14.495-9.301-14.495-17.951s6.094-16.197 14.491-17.948zm-356.212 313.304c-3.36 0-6.37-.16-9.118-.449 2.901-4.512 4.739-9.743 5.194-15.294 1.269.045 2.576.07 3.925.07 5.347 0 10.049-.371 14.252-1.005v15.487c-4.034.752-8.664 1.191-14.253 1.191zm29.22-85.942 93.331-93.287c.641-.641 1.379-.729 1.777-.706.389.012 1.13.133 1.732.81l56.697 63.896c2.744 3.093 7.474 3.375 10.565.63 3.092-2.743 3.375-7.473.631-10.564l-1.59-1.792 32.725-32.71c.641-.64 1.381-.72 1.777-.706.389.012 1.13.133 1.732.81l65.12 73.388v109.1h-264.497v-12.848c4.812-1.818 8.887-3.926 12.755-5.929 9.47-4.904 17.647-9.14 35.09-9.14s25.62 4.236 35.09 9.14c9.789 5.07 20.886 10.817 41.975 10.817 4.134 0 7.484-3.35 7.484-7.484s-3.35-7.484-7.484-7.484c-17.444 0-25.622-4.236-35.091-9.14-9.79-5.07-20.885-10.817-41.974-10.817s-32.185 5.746-41.974 10.817c-1.98 1.026-3.907 2.018-5.871 2.953v-14.373c4.812-1.818 8.887-3.926 12.755-5.929 9.47-4.904 17.647-9.14 35.09-9.14s25.62 4.236 35.09 9.14c9.789 5.07 20.886 10.817 41.975 10.817 4.134 0 7.484-3.35 7.484-7.484s-3.35-7.484-7.484-7.484c-17.444 0-25.622-4.236-35.091-9.14-9.79-5.07-20.885-10.816-41.974-10.816s-32.185 5.746-41.974 10.816c-1.98 1.026-3.907 2.018-5.871 2.953v-14.374c4.812-1.818 8.887-3.926 12.755-5.929 9.47-4.905 17.647-9.14 35.09-9.14s25.62 4.236 35.09 9.14c9.789 5.07 20.886 10.817 41.975 10.817 4.134 0 7.484-3.35 7.484-7.484s-3.35-7.484-7.484-7.484c-17.444 0-25.622-4.236-35.091-9.141-9.79-5.07-20.885-10.816-41.974-10.816s-32.185 5.746-41.974 10.816c-1.98 1.026-3.907 2.019-5.871 2.953zm-29.22 39.627c5.347 0 10.049-.371 14.252-1.005v15.488c-4.034.752-8.664 1.191-14.252 1.191-2.216 0-4.28-.07-6.219-.199-3.808-9.462-11.844-16.926-21.957-19.722v-.256c7.181 2.59 16.015 4.503 28.176 4.503z" fill="#000000" data-original="#000000" style="" class=""/><path xmlns="http://www.w3.org/2000/svg" d="m394.189 158.433c0-27.042-22-49.043-49.044-49.043-27.042 0-49.043 22-49.043 49.043s22 49.044 49.043 49.044c27.044 0 49.044-22.001 49.044-49.044zm-83.118 0c0-18.789 15.286-34.075 34.075-34.075 18.79 0 34.076 15.286 34.076 34.075 0 18.79-15.286 34.076-34.076 34.076-18.789 0-34.075-15.286-34.075-34.076z" fill="#000000" data-original="#000000" style="" class=""/></g></svg>
